<svg xmlns="http://www.w3.org/2000/svg" viewBox="0 0 2100 2970">
    <path d="M 2100,2970 m-220,0, m0,-220 h -544.0" fill="none" stroke="#bbbbbb" stroke-width="2" />  <path d="M 2100,2970 m-220,0, m0,-239 h -562.1814404694384" fill="none" stroke="#bbbbbb" stroke-width="2" />  <path d="M 2100,2970 m-220,0, m0,-258 h -579.318523716236" fill="none" stroke="#bbbbbb" stroke-width="2" />  <path d="M 2100,2970 m-220,0, m0,-277 h -594.498180784391" fill="none" stroke="#bbbbbb" stroke-width="2" />  <path d="M 2100,2970 m-220,0, m0,-296 h -607.0530925355317" fill="none" stroke="#bbbbbb" stroke-width="2" />  <path d="M 2100,2970 m-220,0, m0,-315 h -616.6446550497681" fill="none" stroke="#bbbbbb" stroke-width="2" />  <path d="M 2100,2970 m-220,0, m0,-334 h -623.3038174271185" fill="none" stroke="#bbbbbb" stroke-width="2" />  <path d="M 2100,2970 m-220,0, m0,-353 h -627.4245615341358" fill="none" stroke="#bbbbbb" stroke-width="2" />  <path d="M 2100,2970 m-220,0, m0,-372 h -629.710864801339" fill="none" stroke="#bbbbbb" stroke-width="2" />  <path d="M 2100,2970 m-220,0, m0,-391 h -631.0839508924878" fill="none" stroke="#bbbbbb" stroke-width="2" />  <path d="M 2100,2970 m-220,0, m0,-410 h -632.5617243505288" fill="none" stroke="#bbbbbb" stroke-width="2" />  <path d="M 2100,2970 m-220,0, m0,-429 h -635.1258514423914" fill="none" stroke="#bbbbbb" stroke-width="2" />  <path d="M 2100,2970 m-220,0, m0,-448 h -639.59353317698" fill="none" stroke="#bbbbbb" stroke-width="2" />  <path d="M 2100,2970 m-220,0, m0,-467 h -646.5104148107665" fill="none" stroke="#bbbbbb" stroke-width="2" />  <path d="M 2100,2970 m-220,0, m0,-486 h -656.0783662201486" fill="none" stroke="#bbbbbb" stroke-width="2" />  <path d="M 2100,2970 m-220,0, m0,-505 h -668.1273967403429" fill="none" stroke="#bbbbbb" stroke-width="2" />  <path d="M 2100,2970 m-220,0, m0,-524 h -682.1353096295509" fill="none" stroke="#bbbbbb" stroke-width="2" />  <path d="M 2100,2970 m-220,0, m0,-543 h -697.2925806628275" fill="none" stroke="#bbbbbb" stroke-width="2" />  <path d="M 2100,2970 m-220,0, m0,-562 h -712.6041471995113" fill="none" stroke="#bbbbbb" stroke-width="2" />  <path d="M 2100,2970 m-220,0, m0,-581 h -727.0150617625459" fill="none" stroke="#bbbbbb" stroke-width="2" />  <path d="M 2100,2970 m-220,0, m0,-600 h -739.5439044294769" fill="none" stroke="#bbbbbb" stroke-width="2" />  <path d="M 2100,2970 m-220,0, m0,-619 h -749.4068534415662" fill="none" stroke="#bbbbbb" stroke-width="2" />  <path d="M 2100,2970 m-220,0, m0,-638 h -756.116510941321" fill="none" stroke="#bbbbbb" stroke-width="2" />  <path d="M 2100,2970 m-220,0, m0,-657 h -759.5428171225244" fill="none" stroke="#bbbbbb" stroke-width="2" />  <path d="M 2100,2970 m-220,0, m0,-676 h -759.928246397268" fill="none" stroke="#bbbbbb" stroke-width="2" />  <path d="M 2100,2970 m-220,0, m0,-695 h -757.8553403279415" fill="none" stroke="#bbbbbb" stroke-width="2" />  <path d="M 2100,2970 m-220,0, m0,-714 h -754.1707426032021" fill="none" stroke="#bbbbbb" stroke-width="2" />  <path d="M 2100,2970 m-220,0, m0,-733 h -749.8754778471266" fill="none" stroke="#bbbbbb" stroke-width="2" />  <path d="M 2100,2970 m-220,0, m0,-752 h -745.9955435964097" fill="none" stroke="#bbbbbb" stroke-width="2" />  <path d="M 2100,2970 m-220,0, m0,-771 h -743.4494085432272" fill="none" stroke="#bbbbbb" stroke-width="2" />  <path d="M 2100,2970 m-220,0, m0,-790 h -742.9294065592023" fill="none" stroke="#bbbbbb" stroke-width="2" />  <path d="M 2100,2970 m-220,0, m0,-809 h -744.8122342659944" fill="none" stroke="#bbbbbb" stroke-width="2" />  <path d="M 2100,2970 m-220,0, m0,-828 h -749.110028432464" fill="none" stroke="#bbbbbb" stroke-width="2" />  <path d="M 2100,2970 m-220,0, m0,-847 h -755.468296657768" fill="none" stroke="#bbbbbb" stroke-width="2" />  <path d="M 2100,2970 m-220,0, m0,-866 h -763.2109676792296" fill="none" stroke="#bbbbbb" stroke-width="2" />  <path d="M 2100,2970 m-220,0, m0,-885 h -771.4267863748744" fill="none" stroke="#bbbbbb" stroke-width="2" />  <path d="M 2100,2970 m-220,0, m0,-904 h -779.0859776426712" fill="none" stroke="#bbbbbb" stroke-width="2" />  <path d="M 2100,2970 m-220,0, m0,-923 h -785.172222439732" fill="none" stroke="#bbbbbb" stroke-width="2" />  <path d="M 2100,2970 m-220,0, m0,-942 h -788.8130259113666" fill="none" stroke="#bbbbbb" stroke-width="2" />  <path d="M 2100,2970 m-220,0, m0,-961 h -789.3917634468052" fill="none" stroke="#bbbbbb" stroke-width="2" />  <path d="M 2100,2970 m-220,0, m0,-980 h -786.6270392675078" fill="none" stroke="#bbbbbb" stroke-width="2" />  <path d="M 2100,2970 m-220,0, m0,-999 h -780.6091826586318" fill="none" stroke="#bbbbbb" stroke-width="2" />  <path d="M 2100,2970 m-220,0, m0,-1018 h -771.7892019455762" fill="none" stroke="#bbbbbb" stroke-width="2" />  <path d="M 2100,2970 m-220,0, m0,-1037 h -760.9216113032717" fill="none" stroke="#bbbbbb" stroke-width="2" />  <path d="M 2100,2970 m-220,0, m0,-1056 h -748.9684590505767" fill="none" stroke="#bbbbbb" stroke-width="2" />  <path d="M 2100,2970 m-220,0, m0,-1075 h -736.9768600697189" fill="none" stroke="#bbbbbb" stroke-width="2" />  <path d="M 2100,2970 m-220,0, m0,-1094 h -725.9457317048218" fill="none" stroke="#bbbbbb" stroke-width="2" />  <path d="M 2100,2970 m-220,0, m0,-1113 h -716.698816454319" fill="none" stroke="#bbbbbb" stroke-width="2" />  <path d="M 2100,2970 m-220,0, m0,-1132 h -709.7802685473582" fill="none" stroke="#bbbbbb" stroke-width="2" />  <path d="M 2100,2970 m-220,0, m0,-1151 h -705.3861884477311" fill="none" stroke="#bbbbbb" stroke-width="2" />  <path d="M 2100,2970 m-220,0, m0,-1170 h -703.3408803677708" fill="none" stroke="#bbbbbb" stroke-width="2" />  <path d="M 2100,2970 m-220,0, m0,-1189 h -703.1208738975957" fill="none" stroke="#bbbbbb" stroke-width="2" />  <path d="M 2100,2970 m-220,0, m0,-1208 h -703.9236269947058" fill="none" stroke="#bbbbbb" stroke-width="2" />  <path d="M 2100,2970 m-220,0, m0,-1227 h -704.7720989534768" fill="none" stroke="#bbbbbb" stroke-width="2" />  <path d="M 2100,2970 m-220,0, m0,-1246 h -704.6417830301142" fill="none" stroke="#bbbbbb" stroke-width="2" />  <path d="M 2100,2970 m-220,0, m0,-1265 h -702.5939087503135" fill="none" stroke="#bbbbbb" stroke-width="2" />  <path d="M 2100,2970 m-220,0, m0,-1284 h -697.8977327638095" fill="none" stroke="#bbbbbb" stroke-width="2" />  <path d="M 2100,2970 m-220,0, m0,-1303 h -690.1262358646593" fill="none" stroke="#bbbbbb" stroke-width="2" />  <path d="M 2100,2970 m-220,0, m0,-1322 h -679.2129531395777" fill="none" stroke="#bbbbbb" stroke-width="2" />  <path d="M 2100,2970 m-220,0, m0,-1341 h -665.4626470397636" fill="none" stroke="#bbbbbb" stroke-width="2" />  <path d="M 2100,2970 m-220,0, m0,-1360 h -649.5144506638468" fill="none" stroke="#bbbbbb" stroke-width="2" />  <path d="M 2100,2970 m-220,0, m0,-1379 h -632.262202031057" fill="none" stroke="#bbbbbb" stroke-width="2" />  <path d="M 2100,2970 m-220,0, m0,-1398 h -614.7421783903826" fill="none" stroke="#bbbbbb" stroke-width="2" />  <path d="M 2100,2970 m-220,0, m0,-1417 h -598.0026190229753" fill="none" stroke="#bbbbbb" stroke-width="2" />  <path d="M 2100,2970 m-220,0, m0,-1436 h -582.9717597244554" fill="none" stroke="#bbbbbb" stroke-width="2" />  <path d="M 2100,2970 m-220,0, m0,-1455 h -570.341292874181" fill="none" stroke="#bbbbbb" stroke-width="2" />  <path d="M 2100,2970 m-220,0, m0,-1474 h -560.4801892585396" fill="none" stroke="#bbbbbb" stroke-width="2" />  <path d="M 2100,2970 m-220,0, m0,-1493 h -553.3899251739429" fill="none" stroke="#bbbbbb" stroke-width="2" />  <path d="M 2100,2970 m-220,0, m0,-1512 h -548.7068498539201" fill="none" stroke="#bbbbbb" stroke-width="2" />  <path d="M 2100,2970 m-220,0, m0,-1531 h -545.7513845246783" fill="none" stroke="#bbbbbb" stroke-width="2" />  <path d="M 2100,2970 m-220,0, m0,-1550 h -543.6177402406904" fill="none" stroke="#bbbbbb" stroke-width="2" />  <path d="M 2100,2970 m-220,0, m0,-1569 h -541.2926468569016" fill="none" stroke="#bbbbbb" stroke-width="2" />  <path d="M 2100,2970 m-220,0, m0,-1588 h -537.7878660627854" fill="none" stroke="#bbbbbb" stroke-width="2" />  <path d="M 2100,2970 m-220,0, m0,-1607 h -532.2694941905037" fill="none" stroke="#bbbbbb" stroke-width="2" />  <path d="M 2100,2970 m-220,0, m0,-1626 h -524.1674720827701" fill="none" stroke="#bbbbbb" stroke-width="2" />  <path d="M 2100,2970 m-220,0, m0,-1645 h -513.251256899377" fill="none" stroke="#bbbbbb" stroke-width="2" />  <path d="M 2100,2970 m-220,0, m0,-1664 h -499.66194901908705" fill="none" stroke="#bbbbbb" stroke-width="2" />  <path d="M 2100,2970 m-220,0, m0,-1683 h -483.8967499609188" fill="none" stroke="#bbbbbb" stroke-width="2" />  <path d="M 2100,2970 m-220,0, m0,-1702 h -466.74773875945226" fill="none" stroke="#bbbbbb" stroke-width="2" />  <path d="M 2100,2970 m-220,0, m0,-1721 h -449.2028109480763" fill="none" stroke="#bbbbbb" stroke-width="2" />  <path d="M 2100,2970 m-220,0, m0,-1740 h -432.32147536336726" fill="none" stroke="#bbbbbb" stroke-width="2" />  <path d="M 2100,2970 m-220,0, m0,-1759 h -417.1014274462762" fill="none" stroke="#bbbbbb" stroke-width="2" />  <path d="M 2100,2970 m-220,0, m0,-1778 h -404.353000312994" fill="none" stroke="#bbbbbb" stroke-width="2" />  <path d="M 2100,2970 m-220,0, m0,-1797 h -394.59758498360185" fill="none" stroke="#bbbbbb" stroke-width="2" />  <path d="M 2100,2970 m-220,0, m0,-1816 h -388.0030382633734" fill="none" stroke="#bbbbbb" stroke-width="2" />  <path d="M 2100,2970 m-220,0, m0,-1835 h -384.36435483405967" fill="none" stroke="#bbbbbb" stroke-width="2" />  <path d="M 2100,2970 m-220,0, m0,-1854 h -383.1320770769768" fill="none" stroke="#bbbbbb" stroke-width="2" />  <path d="M 2100,2970 m-220,0, m0,-1873 h -383.48479600198016" fill="none" stroke="#bbbbbb" stroke-width="2" />  <path d="M 2100,2970 m-220,0, m0,-1892 h -384.4364440379881" fill="none" stroke="#bbbbbb" stroke-width="2" />  <path d="M 2100,2970 m-220,0, m0,-1911 h -384.9646200529456" fill="none" stroke="#bbbbbb" stroke-width="2" />  <path d="M 2100,2970 m-220,0, m0,-1930 h -384.1434906637054" fill="none" stroke="#bbbbbb" stroke-width="2" />  <path d="M 2100,2970 m-220,0, m0,-1949 h -381.26422535269506" fill="none" stroke="#bbbbbb" stroke-width="2" />  <path d="M 2100,2970 m-220,0, m0,-1968 h -375.92752132669676" fill="none" stroke="#bbbbbb" stroke-width="2" />  <path d="M 2100,2970 m-220,0, m0,-1987 h -368.09635250586024" fill="none" stroke="#bbbbbb" stroke-width="2" />  <path d="M 2100,2970 m-220,0, m0,-2006 h -358.1021767374252" fill="none" stroke="#bbbbbb" stroke-width="2" />  <path d="M 2100,2970 m-220,0, m0,-2025 h -346.6038024734475" fill="none" stroke="#bbbbbb" stroke-width="2" />  <path d="M 2100,2970 m-220,0, m0,-2044 h -334.50418570881135" fill="none" stroke="#bbbbbb" stroke-width="2" />  <path d="M 2100,2970 m-220,0, m0,-2063 h -322.835821788827" fill="none" stroke="#bbbbbb" stroke-width="2" />  <path d="M 2100,2970 m-220,0, m0,-2082 h -312.62942324321534" fill="none" stroke="#bbbbbb" stroke-width="2" />  <path d="M 2100,2970 m-220,0, m0,-2101 h -304.7827178559229" fill="none" stroke="#bbbbbb" stroke-width="2" />  <path d="M 2100,2970 m-220,0, m0,-2120 h -299.94618598453405" fill="none" stroke="#bbbbbb" stroke-width="2" />  <path d="M 2100,2970 m-220,0, m0,-2139 h -298.4403846468494" fill="none" stroke="#bbbbbb" stroke-width="2" />  <path d="M 2100,2970 m-220,0, m0,-2158 h -300.21545649458795" fill="none" stroke="#bbbbbb" stroke-width="2" />  <path d="M 2100,2970 m-220,0, m0,-2177 h -304.8580136532188" fill="none" stroke="#bbbbbb" stroke-width="2" />  <path d="M 2100,2970 m-220,0, m0,-2196 h -311.6445128801749" fill="none" stroke="#bbbbbb" stroke-width="2" />  <path d="M 2100,2970 m-220,0, m0,-2215 h -319.6342782454029" fill="none" stroke="#bbbbbb" stroke-width="2" />  <path d="M 2100,2970 m-220,0, m0,-2234 h -327.7902447095751" fill="none" stroke="#bbbbbb" stroke-width="2" />  <path d="M 2100,2970 m-220,0, m0,-2253 h -335.1119422167731" fill="none" stroke="#bbbbbb" stroke-width="2" />  <path d="M 2100,2970 m-220,0, m0,-2272 h -340.76367084399436" fill="none" stroke="#bbbbbb" stroke-width="2" />  <path d="M 2100,2970 m-220,0, m0,-2291 h -344.1814343242508" fill="none" stroke="#bbbbbb" stroke-width="2" />  <path d="M 2100,2970 m-220,0, m0,-2310 h -345.14492280846383" fill="none" stroke="#bbbbbb" stroke-width="2" />  <path d="M 2100,2970 m-220,0, m0,-2329 h -343.80531687710135" fill="none" stroke="#bbbbbb" stroke-width="2" />  <path d="M 2100,2970 m-220,0, m0,-2348 h -340.6653490437326" fill="none" stroke="#bbbbbb" stroke-width="2" />  <path d="M 2100,2970 m-220,0, m0,-2367 h -336.51418011849563" fill="none" stroke="#bbbbbb" stroke-width="2" />  <path d="M 2100,2970 m-220,0, m0,-2386 h -332.3254410521797" fill="none" stroke="#bbbbbb" stroke-width="2" />  <path d="M 2100,2970 m-220,0, m0,-2405 h -329.13151352897114" fill="none" stroke="#bbbbbb" stroke-width="2" />  <path d="M 2100,2970 m-220,0, m0,-2424 h -327.89016914402794" fill="none" stroke="#bbbbbb" stroke-width="2" />  <path d="M 2100,2970 m-220,0, m0,-2443 h -329.36066690110835" fill="none" stroke="#bbbbbb" stroke-width="2" />  <path d="M 2100,2970 m-220,0, m0,-2462 h -334.00519636573716" fill="none" stroke="#bbbbbb" stroke-width="2" />  <path d="M 2100,2970 m-220,0, m0,-2481 h -341.9283045477698" fill="none" stroke="#bbbbbb" stroke-width="2" />  <path d="M 2100,2970 m-220,0, m0,-2500 h -352.86207503925306" fill="none" stroke="#bbbbbb" stroke-width="2" />  <path d="M 2100,2970 m-220,0, m0,-2519 h -366.19896240575173" fill="none" stroke="#bbbbbb" stroke-width="2" />  <path d="M 2100,2970 m-220,0, m0,-2538 h -381.06807531931224" fill="none" stroke="#bbbbbb" stroke-width="2" />  <path d="M 2100,2970 m-220,0, m0,-2557 h -396.4451317065718" fill="none" stroke="#bbbbbb" stroke-width="2" />  <path d="M 2100,2970 m-220,0, m0,-2576 h -411.2819924027144" fill="none" stroke="#bbbbbb" stroke-width="2" />  <path d="M 2100,2970 m-220,0, m0,-2595 h -424.63916988961415" fill="none" stroke="#bbbbbb" stroke-width="2" />  <path d="M 2100,2970 m-220,0, m0,-2614 h -435.8043274409769" fill="none" stroke="#bbbbbb" stroke-width="2" />  <path d="M 2100,2970 m-220,0, m0,-2633 h -444.38158027759744" fill="none" stroke="#bbbbbb" stroke-width="2" />  <path d="M 2100,2970 m-220,0, m0,-2652 h -450.34015385713656" fill="none" stroke="#bbbbbb" stroke-width="2" />  <path d="M 2100,2970 m-220,0, m0,-2671 h -454.01616524156856" fill="none" stroke="#bbbbbb" stroke-width="2" />  <path d="M 2100,2970 m-220,0, m0,-2690 h -456.0673035412882" fill="none" stroke="#bbbbbb" stroke-width="2" />  <path d="M 2100,2970 m-220,0, m0,-2709 h -457.3862242001871" fill="none" stroke="#bbbbbb" stroke-width="2" />  <path d="M 2100,2970 m-220,0, m0,-2728 h -458.98376515247816" fill="none" stroke="#bbbbbb" stroke-width="2" />  <path d="M 2100,2970 m-220,0, m0,-2747 h -461.8569620190322" fill="none" stroke="#bbbbbb" stroke-width="2" />
</svg>