<?xml version="1.0" encoding="UTF-8"?>
<!-- Generator: visioncortex VTracer 0.6.4 -->
<svg version="1.1" xmlns="http://www.w3.org/2000/svg" width="4456" height="1556">
<path d="M0 0 C0.66 0 1.32 0 2 0 C2 320.76 2 641.52 2 972 C13.22 970.68 24.44 969.36 36 968 C47.88 965.53 47.88 965.53 60 963 C67.92 960.36 75.84 957.72 84 955 C90.27 952.03 96.54 949.06 103 946 C111.41 940.56 111.41 940.56 120 935 C123.3 932.36 126.6 929.72 130 927 C134.62 923.04 139.24 919.08 144 915 C148.62 911.04 153.24 907.08 158 903 C161.3 900.03 164.6 897.06 168 894 C171.63 891.03 175.26 888.06 179 885 C182.63 881.7 186.26 878.4 190 875 C193.63 872.03 197.26 869.06 201 866 C204.96 862.37 208.92 858.74 213 855 C216.63 852.03 220.26 849.06 224 846 C227.63 842.7 231.26 839.4 235 836 C238.63 833.03 242.26 830.06 246 827 C249.96 823.37 253.92 819.74 258 816 C261.63 813.03 265.26 810.06 269 807 C272.63 803.7 276.26 800.4 280 797 C283.63 794.03 287.26 791.06 291 788 C294.96 784.37 298.92 780.74 303 777 C305.64 774.69 308.28 772.38 311 770 C315.29 766.04 319.58 762.08 324 758 C328.62 753.05 333.24 748.1 338 743 C341.63 738.38 345.26 733.76 349 729 C352.3 724.05 355.6 719.1 359 714 C361.64 708.72 364.28 703.44 367 698 C369.97 690.08 369.97 690.08 373 682 C373.66 678.37 374.32 674.74 375 671 C375 664.4 375 657.8 375 651 C374.01 646.71 373.02 642.42 372 638 C369.36 632.72 366.72 627.44 364 622 C361.69 619.03 359.38 616.06 357 613 C355.02 610.69 353.04 608.38 351 606 C346.38 602.37 341.76 598.74 337 595 C332.05 592.03 327.1 589.06 322 586 C316.39 583.36 310.78 580.72 305 578 C296.09 575.03 287.18 572.06 278 569 C264.14 566.03 264.14 566.03 250 563 C243.07 562.01 236.14 561.02 229 560 C221.08 559.34 213.16 558.68 205 558 C205 544.8 205 531.6 205 518 C210.28 518 215.56 518 221 518 C261.59 519.49 261.59 519.49 303 521 C341.61 521.99 341.61 521.99 381 523 C440.73 523 500.46 523 562 523 C602.1 522.01 602.1 522.01 643 521 C665.77 520.01 688.54 519.02 712 518 C715.63 518 719.26 518 723 518 C723 531.2 723 544.4 723 558 C711.12 560.97 699.24 563.94 687 567 C676.11 570.63 665.22 574.26 654 578 C646.08 581.3 638.16 584.6 630 588 C620.1 592.62 610.2 597.24 600 602 C592.74 605.96 585.48 609.92 578 614 C568.76 619.61 559.52 625.22 550 631 C541.75 636.61 533.5 642.22 525 648 C520.38 651.3 515.76 654.6 511 658 C505.39 662.29 499.78 666.58 494 671 C487.07 676.44 487.07 676.44 480 682 C475.71 685.63 471.42 689.26 467 693 C463.37 695.97 459.74 698.94 456 702 C452.04 705.63 448.08 709.26 444 713 C441.36 715.31 438.72 717.62 436 720 C431.05 724.62 426.1 729.24 421 734 C417.7 736.97 414.4 739.94 411 743 C406.71 746.96 402.42 750.92 398 755 C394.04 758.63 390.08 762.26 386 766 C382.04 769.63 378.08 773.26 374 777 C370.04 780.63 366.08 784.26 362 788 C358.04 791.63 354.08 795.26 350 799 C346.04 802.63 342.08 806.26 338 810 C334.04 813.63 330.08 817.26 326 821 C322.04 824.63 318.08 828.26 314 832 C311.36 834.31 308.72 836.62 306 839 C307.32 841.31 308.64 843.62 310 846 C314.95 853.26 319.9 860.52 325 868 C330.61 876.25 336.22 884.5 342 893 C347.61 901.25 353.22 909.5 359 918 C368.4 931.86 368.4 931.86 378 946 C383.61 954.25 389.22 962.5 395 971 C400.61 979.25 406.22 987.5 412 996 C417.61 1004.25 423.22 1012.5 429 1021 C434.61 1029.25 440.22 1037.5 446 1046 C455.4 1059.86 455.4 1059.86 465 1074 C470.61 1082.25 476.22 1090.5 482 1099 C487.61 1107.25 493.22 1115.5 499 1124 C504.61 1132.25 510.22 1140.5 516 1149 C525.4 1162.86 525.4 1162.86 535 1177 C540.61 1185.25 546.22 1193.5 552 1202 C557.61 1210.25 563.22 1218.5 569 1227 C574.61 1235.25 580.22 1243.5 586 1252 C595.4 1265.86 595.4 1265.86 605 1280 C610.61 1288.25 616.22 1296.5 622 1305 C627.61 1313.25 633.22 1321.5 639 1330 C644.61 1338.25 650.22 1346.5 656 1355 C661.61 1363.25 667.22 1371.5 673 1380 C676.3 1384.62 679.6 1389.24 683 1394 C687.62 1400.27 692.24 1406.54 697 1413 C699.97 1416.63 702.94 1420.26 706 1424 C709.63 1428.29 713.26 1432.58 717 1437 C719.97 1439.97 722.94 1442.94 726 1446 C727.65 1447.65 729.3 1449.3 731 1451 C734.63 1454.3 738.26 1457.6 742 1461 C747.94 1464.96 753.88 1468.92 760 1473 C765.28 1475.64 770.56 1478.28 776 1481 C780.62 1482.65 785.24 1484.3 790 1486 C790.33 1486.33 790.66 1486.66 791 1487 C791 1500.86 791 1514.72 791 1529 C775.16 1528.34 759.32 1527.68 743 1527 C709.67 1525.68 676.34 1524.36 642 1523 C628.14 1522.67 614.28 1522.34 600 1522 C569.97 1522 539.94 1522 509 1522 C479.63 1522.66 450.26 1523.32 420 1524 C374.13 1525.65 328.26 1527.3 281 1529 C278.36 1529 275.72 1529 273 1529 C273 1515.14 273 1501.28 273 1487 C280.26 1486.34 287.52 1485.68 295 1485 C300.61 1483.68 306.22 1482.36 312 1481 C315.3 1479.68 318.6 1478.36 322 1477 C324.64 1475.02 327.28 1473.04 330 1471 C331.65 1469.02 333.3 1467.04 335 1465 C335.99 1463.02 336.98 1461.04 338 1459 C338.33 1455.7 338.66 1452.4 339 1449 C338.01 1445.04 337.02 1441.08 336 1437 C333.36 1431.72 330.72 1426.44 328 1421 C324.04 1414.4 320.08 1407.8 316 1401 C311.05 1393.41 306.1 1385.82 301 1378 C297.04 1371.4 293.08 1364.8 289 1358 C284.05 1350.41 279.1 1342.82 274 1335 C270.04 1328.4 266.08 1321.8 262 1315 C257.05 1307.41 252.1 1299.82 247 1292 C243.04 1285.4 239.08 1278.8 235 1272 C230.05 1264.41 225.1 1256.82 220 1249 C216.04 1242.4 212.08 1235.8 208 1229 C203.05 1221.41 198.1 1213.82 193 1206 C189.04 1199.4 185.08 1192.8 181 1186 C176.05 1178.41 171.1 1170.82 166 1163 C162.04 1156.4 158.08 1149.8 154 1143 C149.05 1135.41 144.1 1127.82 139 1120 C135.04 1113.4 131.08 1106.8 127 1100 C122.05 1092.41 117.1 1084.82 112 1077 C109.69 1073.37 107.38 1069.74 105 1066 C102.03 1062.37 99.06 1058.74 96 1055 C93.03 1051.7 90.06 1048.4 87 1045 C83.7 1042.03 80.4 1039.06 77 1036 C70.07 1031.55 70.07 1031.55 63 1027 C57.72 1024.69 52.44 1022.38 47 1020 C40.07 1018.35 33.14 1016.7 26 1015 C19.4 1014.34 12.8 1013.68 6 1013 C4.68 1012.67 3.36 1012.34 2 1012 C2.33 1131.46 2.66 1250.92 3 1374 C3.99 1382.25 4.98 1390.5 6 1399 C7.65 1405.93 9.3 1412.86 11 1420 C12.65 1424.29 14.3 1428.58 16 1433 C18.31 1437.29 20.62 1441.58 23 1446 C25.64 1449.3 28.28 1452.6 31 1456 C33.31 1458.31 35.62 1460.62 38 1463 C44.93 1467.45 44.93 1467.45 52 1472 C56.95 1473.98 61.9 1475.96 67 1478 C71.95 1479.32 76.9 1480.64 82 1482 C91.4 1483.49 91.4 1483.49 101 1485 C111.89 1485.66 122.78 1486.32 134 1487 C134 1500.86 134 1514.72 134 1529 C114.53 1528.34 95.06 1527.68 75 1527 C46.62 1526.01 18.24 1525.02 -11 1524 C-55.55 1523.01 -55.55 1523.01 -101 1522 C-135.65 1522 -170.3 1522 -206 1522 C-237.35 1522.66 -268.7 1523.32 -301 1524 C-374.26 1526.47 -374.26 1526.47 -449 1529 C-451.97 1529 -454.94 1529 -458 1529 C-458 1515.14 -458 1501.28 -458 1487 C-446.45 1486.34 -434.9 1485.68 -423 1485 C-412.61 1483.51 -412.61 1483.51 -402 1482 C-395.73 1480.35 -389.46 1478.7 -383 1477 C-378.05 1475.02 -373.1 1473.04 -368 1471 C-361.07 1466.55 -361.07 1466.55 -354 1462 C-351.03 1459.36 -348.06 1456.72 -345 1454 C-342.36 1450.37 -339.72 1446.74 -337 1443 C-334.36 1438.05 -331.72 1433.1 -329 1428 C-327.02 1421.73 -325.04 1415.46 -323 1409 C-321.51 1401.57 -321.51 1401.57 -320 1394 C-319.34 1388.39 -318.68 1382.78 -318 1377 C-317.67 1370.73 -317.34 1364.46 -317 1358 C-317 983.45 -317 608.9 -317 223 C-317.66 212.11 -318.32 201.22 -319 190 C-320.32 181.42 -321.64 172.84 -323 164 C-324.65 157.4 -326.3 150.8 -328 144 C-329.98 138.72 -331.96 133.44 -334 128 C-336.64 123.05 -339.28 118.1 -342 113 C-344.97 109.04 -347.94 105.08 -351 101 C-354.63 97.37 -358.26 93.74 -362 90 C-366.95 86.7 -371.9 83.4 -377 80 C-384.92 76.53 -384.92 76.53 -393 73 C-398.94 71.35 -404.88 69.7 -411 68 C-416.94 67.01 -422.88 66.02 -429 65 C-438.57 64.34 -448.14 63.68 -458 63 C-458 49.14 -458 35.28 -458 21 C-435.23 22.32 -412.46 23.64 -389 25 C-374.15 25.49 -374.15 25.49 -359 26 C-329.63 26 -300.26 26 -270 26 C-239.31 25.01 -239.31 25.01 -208 24 C-183.25 22.52 -183.25 22.52 -158 21 C-135.72 19.02 -135.72 19.02 -113 17 C-92.21 14.52 -92.21 14.52 -71 12 C-56.15 9.69 -41.3 7.38 -26 5 C-17.42 3.35 -8.84 1.7 0 0 Z " fill="#FFFFFF" transform="translate(2729,0)"/>
<path d="M0 0 C5.61 0 11.22 0 17 0 C52.64 0.66 88.28 1.32 125 2 C149.75 2.33 174.5 2.66 200 3 C233.99 3.33 267.98 3.66 303 4 C391.61 4.5 391.61 4.5 482 5 C617.96 5 753.92 5 894 5 C930.96 4.67 967.92 4.34 1006 4 C1039.99 3.34 1073.98 2.68 1109 2 C1139.69 1.01 1139.69 1.01 1171 0 C1174.63 0 1178.26 0 1182 0 C1180.35 21.45 1178.7 42.9 1177 65 C1175.35 91.07 1173.7 117.14 1172 144 C1170.51 176.67 1170.51 176.67 1169 210 C1168.67 220.23 1168.34 230.46 1168 241 C1168 279.94 1168 318.88 1168 359 C1168.66 373.52 1169.32 388.04 1170 403 C1170.99 415.21 1171.98 427.42 1173 440 C1173 441.98 1173 443.96 1173 446 C1156.17 446 1139.34 446 1122 446 C1121.34 444.02 1120.68 442.04 1120 440 C1117.03 426.14 1114.06 412.28 1111 398 C1107.04 382.16 1103.08 366.32 1099 350 C1095.04 337.13 1091.08 324.26 1087 311 C1082.05 296.64 1082.05 296.64 1077 282 C1073.04 272.43 1069.08 262.86 1065 253 C1059.06 240.13 1059.06 240.13 1053 227 C1049.7 220.73 1046.4 214.46 1043 208 C1039.04 201.4 1035.08 194.8 1031 188 C1026.71 181.73 1022.42 175.46 1018 169 C1012.56 162.07 1012.56 162.07 1007 155 C1003.37 150.71 999.74 146.42 996 142 C993.36 139.36 990.72 136.72 988 134 C985.53 131.52 985.53 131.52 983 129 C979.7 125.7 976.4 122.4 973 119 C968.38 115.37 963.76 111.74 959 108 C954.05 104.37 949.1 100.74 944 97 C936.08 92.38 928.16 87.76 920 83 C910.6 78.55 910.6 78.55 901 74 C892.09 70.7 883.18 67.4 874 64 C865.42 61.69 856.84 59.38 848 57 C839.42 55.35 830.84 53.7 822 52 C811.11 50.68 800.22 49.36 789 48 C784.05 47.67 779.1 47.34 774 47 C726.15 47 678.3 47 629 47 C616.62 47.99 616.62 47.99 604 49 C597.73 49.99 591.46 50.98 585 52 C579.06 53.65 573.12 55.3 567 57 C562.38 59.31 557.76 61.62 553 64 C548.54 67.47 548.54 67.47 544 71 C541.36 73.97 538.72 76.94 536 80 C533.36 85.28 530.72 90.56 528 96 C526.35 101.61 524.7 107.22 523 113 C522.01 119.27 521.02 125.54 520 132 C519.34 141.57 518.68 151.14 518 161 C517.67 330.95 517.34 500.9 517 676 C546.37 675.67 575.74 675.34 606 675 C613.92 674.34 621.84 673.68 630 673 C637.59 671.68 645.18 670.36 653 669 C660.26 667.02 667.52 665.04 675 663 C683.25 659.7 691.5 656.4 700 653 C706.27 649.7 712.54 646.4 719 643 C722.96 640.36 726.92 637.72 731 635 C736.94 630.54 736.94 630.54 743 626 C747.29 622.37 751.58 618.74 756 615 C761.94 609.06 767.88 603.12 774 597 C777.63 592.38 781.26 587.76 785 583 C789.29 577.06 793.58 571.12 798 565 C802.29 557.74 806.58 550.48 811 543 C815.29 534.42 819.58 525.84 824 517 C827.63 508.09 831.26 499.18 835 490 C838.96 477.79 842.92 465.58 847 453 C851.46 435.67 851.46 435.67 856 418 C873.49 418 890.98 418 909 418 C907.51 441.26 907.51 441.26 906 465 C904.51 490.74 904.51 490.74 903 517 C902.34 535.81 901.68 554.62 901 574 C901 597.43 901 620.86 901 645 C901.33 674.04 901.66 703.08 902 733 C902.66 753.79 903.32 774.58 904 796 C905.32 819.43 906.64 842.86 908 867 C909.98 894.39 911.96 921.78 914 950 C914.33 954.29 914.66 958.58 915 963 C915 966.3 915 969.6 915 973 C898.17 973 881.34 973 864 973 C863.34 970.69 862.68 968.38 862 966 C860.02 956.76 858.04 947.52 856 938 C853.69 929.42 851.38 920.84 849 912 C846.03 903.09 843.06 894.18 840 885 C836.7 877.41 833.4 869.82 830 862 C827.36 856.72 824.72 851.44 822 846 C818.7 840.06 815.4 834.12 812 828 C808.37 822.72 804.74 817.44 801 812 C795.56 805.07 795.56 805.07 790 798 C786.04 793.71 782.08 789.42 778 785 C775.03 782.03 772.06 779.06 769 776 C763.56 771.54 763.56 771.54 758 767 C753.05 763.37 748.1 759.74 743 756 C733.6 750.56 733.6 750.56 724 745 C718.39 742.36 712.78 739.72 707 737 C694.62 732.54 694.62 732.54 682 728 C669.62 725.03 669.62 725.03 657 722 C648.09 720.68 639.18 719.36 630 718 C626.04 717.67 622.08 717.34 618 717 C584.67 716.67 551.34 716.34 517 716 C517.33 871.76 517.66 1027.52 518 1188 C518.66 1197.9 519.32 1207.8 520 1218 C521.32 1226.58 522.64 1235.16 524 1244 C526.97 1254.39 526.97 1254.39 530 1265 C532.64 1270.61 535.28 1276.22 538 1282 C540.97 1285.96 543.94 1289.92 547 1294 C550.63 1297.63 554.26 1301.26 558 1305 C561.63 1307.31 565.26 1309.62 569 1312 C574.28 1314.64 579.56 1317.28 585 1320 C594.4 1322.97 594.4 1322.97 604 1326 C611.92 1327.65 619.84 1329.3 628 1331 C638.89 1332.32 649.78 1333.64 661 1335 C670.9 1335.66 680.8 1336.32 691 1337 C711.46 1337.66 731.92 1338.32 753 1339 C753 1353.52 753 1368.04 753 1383 C724.62 1382.34 696.24 1381.68 667 1381 C629.71 1380.34 592.42 1379.68 554 1379 C523.97 1378.67 493.94 1378.34 463 1378 C395.68 1378 328.36 1378 259 1378 C216.1 1378.66 173.2 1379.32 129 1380 C69.6 1381.49 69.6 1381.49 9 1383 C6.03 1383 3.06 1383 0 1383 C0 1369.8 0 1356.6 0 1343 C8.91 1342.34 17.82 1341.68 27 1341 C37.56 1340.01 48.12 1339.02 59 1338 C66.92 1336.68 74.84 1335.36 83 1334 C89.27 1332.35 95.54 1330.7 102 1329 C107.94 1326.36 113.88 1323.72 120 1321 C123.63 1318.36 127.26 1315.72 131 1313 C133.97 1310.03 136.94 1307.06 140 1304 C143.96 1297.57 143.96 1297.57 148 1291 C149.98 1286.05 151.96 1281.1 154 1276 C155.65 1269.07 157.3 1262.14 159 1255 C159.99 1247.74 160.98 1240.48 162 1233 C162.33 1228.38 162.66 1223.76 163 1219 C163.33 1209.76 163.66 1200.52 164 1191 C164 861.33 164 531.66 164 192 C163.67 182.76 163.34 173.52 163 164 C162.01 154.1 161.02 144.2 160 134 C158.68 127.4 157.36 120.8 156 114 C154.02 108.39 152.04 102.78 150 97 C147.36 92.05 144.72 87.1 142 82 C138.04 77.71 134.08 73.42 130 69 C125.38 66.03 120.76 63.06 116 60 C110.39 57.69 104.78 55.38 99 53 C92.4 51.35 85.8 49.7 79 48 C65.64 46.02 65.64 46.02 52 44 C34.84 42.68 17.68 41.36 0 40 C0 26.8 0 13.6 0 0 Z " fill="#FFFFFF" transform="translate(0,146)"/>
<path d="M0 0 C20.46 0 40.92 0 62 0 C76.19 0.66 90.38 1.32 105 2 C116.22 2.99 127.44 3.98 139 5 C151.21 6.65 163.42 8.3 176 10 C187.55 12.31 199.1 14.62 211 17 C219.58 19.31 228.16 21.62 237 24 C245.91 26.97 254.82 29.94 264 33 C271.59 36.3 279.18 39.6 287 43 C294.92 46.96 294.92 46.96 303 51 C310.92 55.46 310.92 55.46 319 60 C324.61 63.96 330.22 67.92 336 72 C340.62 75.63 345.24 79.26 350 83 C357.92 90.42 357.92 90.42 366 98 C368.97 101.3 371.94 104.6 375 108 C378.3 112.29 381.6 116.58 385 121 C388.96 127.27 392.92 133.54 397 140 C400.96 148.25 404.92 156.5 409 165 C412.96 176.88 412.96 176.88 417 189 C418.98 196.92 420.96 204.84 423 213 C425.47 228.35 425.47 228.35 428 244 C428.99 253.24 429.98 262.48 431 272 C431.66 283.55 432.32 295.1 433 307 C433.33 501.7 433.66 696.4 434 897 C434.33 904.59 434.66 912.18 435 920 C435.99 926.93 436.98 933.86 438 941 C439.65 945.95 441.3 950.9 443 956 C444.98 959.3 446.96 962.6 449 966 C451.64 968.31 454.28 970.62 457 973 C460.63 974.32 464.26 975.64 468 977 C469.98 977.33 471.96 977.66 474 978 C478.62 978 483.24 978 488 978 C493.61 977.01 499.22 976.02 505 975 C510.28 973.02 515.56 971.04 521 969 C527.93 965.37 534.86 961.74 542 958 C547.94 954.04 553.88 950.08 560 946 C560.99 946 561.98 946 563 946 C570.92 957.88 570.92 957.88 579 970 C580.65 972.31 582.3 974.62 584 977 C583.67 978.32 583.34 979.64 583 981 C578.71 983.97 574.42 986.94 570 990 C563.4 993.96 556.8 997.92 550 1002 C542.41 1005.96 534.82 1009.92 527 1014 C519.41 1017.3 511.82 1020.6 504 1024 C493.11 1027.63 482.22 1031.26 471 1035 C456.15 1038.46 456.15 1038.46 441 1042 C430.77 1043.65 420.54 1045.3 410 1047 C399.77 1047.99 389.54 1048.98 379 1050 C372.73 1050.33 366.46 1050.66 360 1051 C342.84 1051 325.68 1051 308 1051 C291.17 1049.51 291.17 1049.51 274 1048 C266.41 1046.68 258.82 1045.36 251 1044 C239.62 1041.03 239.62 1041.03 228 1038 C220.74 1035.36 213.48 1032.72 206 1030 C199.07 1026.37 192.14 1022.74 185 1019 C180.38 1015.7 175.76 1012.4 171 1009 C167.7 1006.03 164.4 1003.06 161 1000 C159.35 998.35 157.7 996.7 156 995 C153.03 991.7 150.06 988.4 147 985 C143.7 980.05 140.4 975.1 137 970 C133.04 961.59 133.04 961.59 129 953 C127.02 946.4 125.04 939.8 123 933 C122.01 927.72 121.02 922.44 120 917 C119.34 910.07 118.68 903.14 118 896 C114.7 900.29 111.4 904.58 108 909 C103.55 914.44 103.55 914.44 99 920 C96.03 923.3 93.06 926.6 90 930 C87.69 932.64 85.38 935.28 83 938 C79.04 941.96 75.08 945.92 71 950 C68.36 952.31 65.72 954.62 63 957 C58.71 960.63 54.42 964.26 50 968 C44.06 972.29 38.12 976.58 32 981 C27.05 984.3 22.1 987.6 17 991 C10.07 994.96 3.14 998.92 -4 1003 C-11.92 1006.96 -19.84 1010.92 -28 1015 C-38.89 1019.29 -49.78 1023.58 -61 1028 C-70.9 1030.97 -80.8 1033.94 -91 1037 C-99.58 1038.98 -108.16 1040.96 -117 1043 C-127.23 1044.65 -137.46 1046.3 -148 1048 C-159.55 1048.99 -171.1 1049.98 -183 1051 C-198.51 1051 -214.02 1051 -230 1051 C-238.91 1050.34 -247.82 1049.68 -257 1049 C-267.89 1047.35 -278.78 1045.7 -290 1044 C-302.87 1041.03 -302.87 1041.03 -316 1038 C-323.59 1035.69 -331.18 1033.38 -339 1031 C-346.26 1028.03 -353.52 1025.06 -361 1022 C-366.28 1019.36 -371.56 1016.72 -377 1014 C-384.92 1009.55 -384.92 1009.55 -393 1005 C-397.62 1001.7 -402.24 998.4 -407 995 C-410.63 992.03 -414.26 989.06 -418 986 C-423.94 980.56 -423.94 980.56 -430 975 C-432.31 972.69 -434.62 970.38 -437 968 C-440.63 963.38 -444.26 958.76 -448 954 C-450.97 949.71 -453.94 945.42 -457 941 C-460.3 935.06 -463.6 929.12 -467 923 C-470.96 913.1 -470.96 913.1 -475 903 C-477.47 894.59 -477.47 894.59 -480 886 C-481.32 880.06 -482.64 874.12 -484 868 C-484.66 862.39 -485.32 856.78 -486 851 C-486.49 839.62 -486.49 839.62 -487 828 C-486.67 820.74 -486.34 813.48 -486 806 C-485.01 798.41 -484.02 790.82 -483 783 C-480.69 773.76 -478.38 764.52 -476 755 C-473.36 748.4 -470.72 741.8 -468 735 C-464.04 727.41 -460.08 719.82 -456 712 C-451.38 705.4 -446.76 698.8 -442 692 C-437.71 687.05 -433.42 682.1 -429 677 C-422.4 670.4 -415.8 663.8 -409 657 C-405.37 654.03 -401.74 651.06 -398 648 C-393.71 644.7 -389.42 641.4 -385 638 C-376.09 632.06 -367.18 626.12 -358 620 C-352.39 616.7 -346.78 613.4 -341 610 C-328.13 603.07 -328.13 603.07 -315 596 C-304.44 591.05 -293.88 586.1 -283 581 C-263.69 573.08 -263.69 573.08 -244 565 C-222.22 557.08 -222.22 557.08 -200 549 C-161.39 536.13 -122.78 523.26 -83 510 C-58.25 501.09 -58.25 501.09 -33 492 C-16.17 485.07 -16.17 485.07 1 478 C8.92 474.37 16.84 470.74 25 467 C32.59 463.04 40.18 459.08 48 455 C54.93 450.38 61.86 445.76 69 441 C72.3 438.36 75.6 435.72 79 433 C82.3 430.03 85.6 427.06 89 424 C92.3 420.04 95.6 416.08 99 412 C101.64 407.38 104.28 402.76 107 398 C108.65 393.05 110.3 388.1 112 383 C112.33 381.35 112.66 379.7 113 378 C113 316.29 113 254.58 113 191 C112.01 183.41 111.02 175.82 110 168 C107.53 157.61 107.53 157.61 105 147 C102.69 140.73 100.38 134.46 98 128 C94.04 120.08 94.04 120.08 90 112 C86.04 106.06 86.04 106.06 82 100 C78.37 95.71 74.74 91.42 71 87 C68.69 84.69 66.38 82.38 64 80 C59.05 76.37 54.1 72.74 49 69 C44.38 66.36 39.76 63.72 35 61 C29.72 58.69 24.44 56.38 19 54 C12.73 52.02 6.46 50.04 0 48 C-8.58 46.35 -17.16 44.7 -26 43 C-32.93 42.34 -39.86 41.68 -47 41 C-59.21 41 -71.42 41 -84 41 C-98.36 42.49 -98.36 42.49 -113 44 C-121.58 45.65 -130.16 47.3 -139 49 C-149.89 51.97 -149.89 51.97 -161 55 C-169.25 58.3 -177.5 61.6 -186 65 C-194.41 69.46 -194.41 69.46 -203 74 C-207.29 76.97 -211.58 79.94 -216 83 C-217.98 84.98 -217.98 84.98 -220 87 C-209.11 90.96 -209.11 90.96 -198 95 C-191.4 97.97 -184.8 100.94 -178 104 C-172.39 107.3 -166.78 110.6 -161 114 C-155.56 117.96 -155.56 117.96 -150 122 C-144.56 126.46 -144.56 126.46 -139 131 C-134.38 135.62 -129.76 140.24 -125 145 C-121.37 149.95 -117.74 154.9 -114 160 C-111.03 165.28 -108.06 170.56 -105 176 C-103.02 180.95 -101.04 185.9 -99 191 C-97.35 197.6 -95.7 204.2 -94 211 C-93.34 216.28 -92.68 221.56 -92 227 C-92 235.25 -92 243.5 -92 252 C-92.99 258.27 -93.98 264.54 -95 271 C-96.65 276.28 -98.3 281.56 -100 287 C-102.97 293.27 -105.94 299.54 -109 306 C-113.95 312.93 -113.95 312.93 -119 320 C-122.63 323.96 -126.26 327.92 -130 332 C-133.63 335.3 -137.26 338.6 -141 342 C-145.29 344.97 -149.58 347.94 -154 351 C-159.28 353.97 -164.56 356.94 -170 360 C-179.4 363.96 -179.4 363.96 -189 368 C-196.59 370.31 -204.18 372.62 -212 375 C-222.89 376.98 -222.89 376.98 -234 379 C-240.27 379.66 -246.54 380.32 -253 381 C-264.55 381 -276.1 381 -288 381 C-298.89 379.51 -298.89 379.51 -310 378 C-316.6 376.35 -323.2 374.7 -330 373 C-334.95 371.02 -339.9 369.04 -345 367 C-350.28 364.36 -355.56 361.72 -361 359 C-367.93 354.05 -367.93 354.05 -375 349 C-379.62 345.04 -384.24 341.08 -389 337 C-392.96 332.38 -396.92 327.76 -401 323 C-404.63 317.06 -408.26 311.12 -412 305 C-414.31 300.05 -416.62 295.1 -419 290 C-420.65 285.05 -422.3 280.1 -424 275 C-425.32 268.73 -426.64 262.46 -428 256 C-428.33 253.36 -428.66 250.72 -429 248 C-429 237.11 -429 226.22 -429 215 C-427.52 206.09 -427.52 206.09 -426 197 C-424.35 191.39 -422.7 185.78 -421 180 C-417.37 172.41 -413.74 164.82 -410 157 C-405.05 149.58 -405.05 149.58 -400 142 C-397.03 138.37 -394.06 134.74 -391 131 C-387.37 127.04 -383.74 123.08 -380 119 C-377.36 116.36 -374.72 113.72 -372 111 C-368.37 108.03 -364.74 105.06 -361 102 C-356.71 98.7 -352.42 95.4 -348 92 C-343.05 88.7 -338.1 85.4 -333 82 C-326.07 78.04 -319.14 74.08 -312 70 C-306.72 67.36 -301.44 64.72 -296 62 C-288.74 58.7 -281.48 55.4 -274 52 C-264.43 48.37 -254.86 44.74 -245 41 C-233.78 37.37 -222.56 33.74 -211 30 C-196.48 26.37 -181.96 22.74 -167 19 C-148.68 15.54 -148.68 15.54 -130 12 C-118.78 10.35 -107.56 8.7 -96 7 C-76.69 5.02 -76.69 5.02 -57 3 C-46.77 2.34 -36.54 1.68 -26 1 C-17.42 0.67 -8.84 0.34 0 0 Z M113 449 C110.03 452.63 107.06 456.26 104 460 C101.03 462.97 98.06 465.94 95 469 C88.07 474.44 88.07 474.44 81 480 C76.05 483.63 71.1 487.26 66 491 C58.74 495.62 51.48 500.24 44 505 C34.43 510.61 24.86 516.22 15 522 C6.75 526.62 -1.5 531.24 -10 536 C-14.62 538.64 -19.24 541.28 -24 544 C-31.26 548.95 -38.52 553.9 -46 559 C-52.27 563.62 -58.54 568.24 -65 573 C-69.29 576.63 -73.58 580.26 -78 584 C-81.63 586.97 -85.26 589.94 -89 593 C-96.59 600.59 -104.18 608.18 -112 616 C-116.45 621.44 -116.45 621.44 -121 627 C-124.3 631.29 -127.6 635.58 -131 640 C-134.96 646.27 -138.92 652.54 -143 659 C-145.64 664.28 -148.28 669.56 -151 675 C-153.64 681.27 -156.28 687.54 -159 694 C-161.97 703.9 -161.97 703.9 -165 714 C-166.32 720.27 -167.64 726.54 -169 733 C-169.99 742.57 -170.98 752.14 -172 762 C-172 769.92 -172 777.84 -172 786 C-171.34 793.26 -170.68 800.52 -170 808 C-168.35 816.25 -166.7 824.5 -165 833 C-162.69 839.6 -160.38 846.2 -158 853 C-153.55 861.41 -153.55 861.41 -149 870 C-146.03 873.96 -143.06 877.92 -140 882 C-135.55 886.95 -135.55 886.95 -131 892 C-125.06 896.95 -125.06 896.95 -119 902 C-114.05 904.97 -109.1 907.94 -104 911 C-97.4 913.64 -90.8 916.28 -84 919 C-76.74 920.65 -69.48 922.3 -62 924 C-59.03 924.33 -56.06 924.66 -53 925 C-40.46 925 -27.92 925 -15 925 C-5.6 923.51 -5.6 923.51 4 922 C10.93 920.02 17.86 918.04 25 916 C30.28 913.69 35.56 911.38 41 909 C48.42 905.04 48.42 905.04 56 901 C60.62 897.7 65.24 894.4 70 891 C73.63 888.03 77.26 885.06 81 882 C84.96 878.37 88.92 874.74 93 871 C95.64 868.36 98.28 865.72 101 863 C104.47 859.04 104.47 859.04 108 855 C109.98 852.69 111.96 850.38 114 848 C114 716.33 114 584.66 114 449 C113.67 449 113.34 449 113 449 Z " fill="#FFFFFF" transform="translate(1691,491)"/>
<path d="M0 0 C16.17 0 32.34 0 49 0 C60.55 0.66 72.1 1.32 84 2 C95.55 3.32 107.1 4.64 119 6 C128.57 7.65 138.14 9.3 148 11 C162.85 14.46 162.85 14.46 178 18 C187.57 20.97 197.14 23.94 207 27 C215.25 30.3 223.5 33.6 232 37 C240.25 40.96 248.5 44.92 257 49 C262.94 52.3 268.88 55.6 275 59 C278.96 61.64 282.92 64.28 287 67 C291.62 70.3 296.24 73.6 301 77 C306.44 81.46 306.44 81.46 312 86 C315.3 88.97 318.6 91.94 322 95 C325.96 98.47 325.96 98.47 330 102 C333.3 105.3 336.6 108.6 340 112 C342.31 114.64 344.62 117.28 347 120 C351.29 125.28 355.58 130.56 360 136 C363.96 141.61 367.92 147.22 372 153 C375.96 159.6 379.92 166.2 384 173 C388.29 181.25 392.58 189.5 397 198 C400.3 205.92 403.6 213.84 407 222 C410.96 233.88 414.92 245.76 419 258 C422.96 273.84 422.96 273.84 427 290 C428.98 300.56 430.96 311.12 433 322 C434.32 332.23 435.64 342.46 437 353 C437.99 365.54 438.98 378.08 440 391 C440.33 405.19 440.66 419.38 441 434 C236.73 434 32.46 434 -178 434 C-178 436.97 -178 439.94 -178 443 C-178.66 451.58 -179.32 460.16 -180 469 C-180.33 476.92 -180.66 484.84 -181 493 C-181 512.47 -181 531.94 -181 552 C-180.34 562.89 -179.68 573.78 -179 585 C-177.02 601.83 -177.02 601.83 -175 619 C-173.02 630.22 -171.04 641.44 -169 653 C-166.69 662.24 -164.38 671.48 -162 681 C-158.04 692.88 -154.08 704.76 -150 717 C-147.03 723.93 -144.06 730.86 -141 738 C-137.04 746.41 -137.04 746.41 -133 755 C-129.37 761.27 -125.74 767.54 -122 774 C-118.7 778.95 -115.4 783.9 -112 789 C-106.06 796.92 -106.06 796.92 -100 805 C-95.71 809.95 -91.42 814.9 -87 820 C-81.06 825.94 -75.12 831.88 -69 838 C-64.38 841.63 -59.76 845.26 -55 849 C-47.57 854.44 -47.57 854.44 -40 860 C-32.57 864.45 -32.57 864.45 -25 869 C-18.73 872.3 -12.46 875.6 -6 879 C5.39 883.45 5.39 883.45 17 888 C24.59 890.31 32.18 892.62 40 895 C48.25 896.65 56.5 898.3 65 900 C70.61 900.66 76.22 901.32 82 902 C87.61 902.33 93.22 902.66 99 903 C103.95 903 108.9 903 114 903 C124.89 902.34 135.78 901.68 147 901 C156.24 899.68 165.48 898.36 175 897 C187.87 894.03 187.87 894.03 201 891 C209.58 888.36 218.16 885.72 227 883 C234.92 879.7 242.84 876.4 251 873 C256.28 870.36 261.56 867.72 267 865 C272.94 861.7 278.88 858.4 285 855 C289.95 851.7 294.9 848.4 300 845 C305.28 841.04 310.56 837.08 316 833 C319.63 830.03 323.26 827.06 327 824 C331.29 820.04 335.58 816.08 340 812 C347.26 804.74 354.52 797.48 362 790 C366.45 784.56 366.45 784.56 371 779 C375.29 773.72 379.58 768.44 384 763 C389.44 755.08 389.44 755.08 395 747 C400.44 748.49 400.44 748.49 406 750 C415.9 753.3 425.8 756.6 436 760 C435.34 762.97 434.68 765.94 434 769 C430.37 777.58 426.74 786.16 423 795 C419.04 803.25 415.08 811.5 411 820 C406.71 827.59 402.42 835.18 398 843 C391.07 853.89 391.07 853.89 384 865 C380.04 870.28 376.08 875.56 372 881 C369.03 884.96 366.06 888.92 363 893 C358.55 898.44 358.55 898.44 354 904 C351.03 907.3 348.06 910.6 345 914 C342.69 916.64 340.38 919.28 338 922 C334.7 925.3 331.4 928.6 328 932 C326.35 933.65 324.7 935.3 323 937 C319.04 940.96 315.08 944.92 311 949 C308.36 951.31 305.72 953.62 303 956 C294.59 962.93 294.59 962.93 286 970 C280.06 974.29 274.12 978.58 268 983 C259.09 988.94 259.09 988.94 250 995 C242.57 999.45 242.57 999.45 235 1004 C229.06 1007.3 223.12 1010.6 217 1014 C208.75 1017.96 200.5 1021.92 192 1026 C179.62 1030.95 179.62 1030.95 167 1036 C152.15 1040.95 152.15 1040.95 137 1046 C123.64 1049.46 123.64 1049.46 110 1053 C100.1 1054.98 90.2 1056.96 80 1059 C69.77 1060.32 59.54 1061.64 49 1063 C40.75 1063.66 32.5 1064.32 24 1065 C1.56 1065 -20.88 1065 -44 1065 C-63.3 1063.51 -63.3 1063.51 -83 1062 C-93.56 1060.68 -104.12 1059.36 -115 1058 C-131.34 1055.03 -131.34 1055.03 -148 1052 C-161.2 1048.7 -174.4 1045.4 -188 1042 C-205.82 1036.06 -205.82 1036.06 -224 1030 C-232.25 1026.7 -240.5 1023.4 -249 1020 C-257.58 1016.04 -266.16 1012.08 -275 1008 C-281.6 1004.37 -288.2 1000.74 -295 997 C-301.93 992.71 -308.86 988.42 -316 984 C-321.61 980.04 -327.22 976.08 -333 972 C-337.29 968.7 -341.58 965.4 -346 962 C-352.43 956.56 -352.43 956.56 -359 951 C-363.95 946.55 -363.95 946.55 -369 942 C-372.96 938.37 -376.92 934.74 -381 931 C-388.92 922.59 -388.92 922.59 -397 914 C-400.63 909.71 -404.26 905.42 -408 901 C-411.3 896.71 -414.6 892.42 -418 888 C-421.96 882.39 -425.92 876.78 -430 871 C-435.94 861.6 -435.94 861.6 -442 852 C-445.96 845.07 -449.92 838.14 -454 831 C-457.63 823.74 -461.26 816.48 -465 809 C-468.96 799.43 -472.92 789.86 -477 780 C-480.3 770.76 -483.6 761.52 -487 752 C-489.97 741.44 -492.94 730.88 -496 720 C-498.64 708.12 -501.28 696.24 -504 684 C-506.97 665.68 -506.97 665.68 -510 647 C-511.32 634.46 -512.64 621.92 -514 609 C-514.66 597.78 -515.32 586.56 -516 575 C-516 553.88 -516 532.76 -516 511 C-515.34 499.78 -514.68 488.56 -514 477 C-512.02 458.68 -512.02 458.68 -510 440 C-508.02 427.79 -506.04 415.58 -504 403 C-501.36 391.12 -498.72 379.24 -496 367 C-493.36 357.76 -490.72 348.52 -488 339 C-484.7 329.1 -481.4 319.2 -478 309 C-474.04 299.43 -470.08 289.86 -466 280 C-461.71 271.09 -457.42 262.18 -453 253 C-448.71 245.41 -444.42 237.82 -440 230 C-436.04 223.73 -432.08 217.46 -428 211 C-424.04 205.39 -420.08 199.78 -416 194 C-412.37 189.38 -408.74 184.76 -405 180 C-402.03 176.37 -399.06 172.74 -396 169 C-392.37 165.04 -388.74 161.08 -385 157 C-382.03 153.7 -379.06 150.4 -376 147 C-371.71 142.71 -367.42 138.42 -363 134 C-360.36 131.69 -357.72 129.38 -355 127 C-350.05 122.71 -345.1 118.42 -340 114 C-335.71 110.7 -331.42 107.4 -327 104 C-321.06 99.71 -315.12 95.42 -309 91 C-302.73 87.04 -296.46 83.08 -290 79 C-283.07 75.04 -276.14 71.08 -269 67 C-262.07 63.37 -255.14 59.74 -248 56 C-237.44 51.38 -226.88 46.76 -216 42 C-199.17 36.06 -199.17 36.06 -182 30 C-173.09 27.36 -164.18 24.72 -155 22 C-145.43 19.69 -135.86 17.38 -126 15 C-107.68 11.54 -107.68 11.54 -89 8 C-73.65 6.02 -73.65 6.02 -58 4 C-46.12 3.01 -34.24 2.02 -22 1 C-14.74 0.67 -7.48 0.34 0 0 Z M-1 43 C-9.91 44.49 -9.91 44.49 -19 46 C-24.28 47.65 -29.56 49.3 -35 51 C-40.28 53.31 -45.56 55.62 -51 58 C-56.94 61.96 -62.88 65.92 -69 70 C-75.93 75.94 -75.93 75.94 -83 82 C-85.64 84.64 -88.28 87.28 -91 90 C-93.97 93.63 -96.94 97.26 -100 101 C-103.63 105.95 -107.26 110.9 -111 116 C-113.97 120.95 -116.94 125.9 -120 131 C-123.96 138.59 -127.92 146.18 -132 154 C-135.3 161.92 -138.6 169.84 -142 178 C-144.97 186.25 -147.94 194.5 -151 203 C-154.3 214.88 -157.6 226.76 -161 239 C-163.64 250.88 -166.28 262.76 -169 275 C-170.98 286.55 -172.96 298.1 -175 310 C-176.65 322.54 -178.3 335.08 -180 348 C-181.32 361.86 -182.64 375.72 -184 390 C-184 392.31 -184 394.62 -184 397 C-70.15 397 43.7 397 161 397 C161.33 396.01 161.66 395.02 162 394 C162 380.47 162 366.94 162 353 C161.34 338.15 160.68 323.3 160 308 C159.01 296.78 158.02 285.56 157 274 C155.02 260.14 153.04 246.28 151 232 C148.69 220.78 146.38 209.56 144 198 C140.04 183.64 140.04 183.64 136 169 C133.03 160.42 130.06 151.84 127 143 C123.37 135.08 119.74 127.16 116 119 C113.03 113.72 110.06 108.44 107 103 C103.04 97.39 99.08 91.78 95 86 C91.04 81.71 87.08 77.42 83 73 C77.56 68.05 77.56 68.05 72 63 C67.38 60.03 62.76 57.06 58 54 C52.56 51.52 52.56 51.52 47 49 C40.57 47.02 40.57 47.02 34 45 C30.37 44.34 26.74 43.68 23 43 C15.08 43 7.16 43 -1 43 Z " fill="#FFFFFF" transform="translate(4015,491)"/>
</svg>
